/* XPM */
static char *result[] = {
/* columns rows colors chars-per-pixel */
"32 32 200 2 ",
"   c #331918",
".  c #321A19",
"X  c #331A19",
"o  c #341A19",
"O  c #341B1A",
"+  c #351B1A",
"@  c #351C1B",
"#  c #361C1B",
"$  c #381D1C",
"%  c #391E1D",
"&  c #391F1E",
"*  c #3A1F1E",
"=  c #3B201F",
"-  c #331924",
";  c #361C27",
":  c #361D28",
">  c #3A1D29",
",  c #3B1D2A",
"<  c #391E2A",
"1  c #3C2120",
"2  c #3D2120",
"3  c #3C2121",
"4  c #3D2221",
"5  c #3E2221",
"6  c #3F2221",
"7  c #3F2322",
"8  c #3E202D",
"9  c #3F222F",
"0  c #431C2A",
"q  c #431C2D",
"w  c #691436",
"e  c #691737",
"r  c #6B1E39",
"t  c #402322",
"y  c #412423",
"u  c #422524",
"i  c #432524",
"p  c #432625",
"a  c #402626",
"s  c #412726",
"d  c #452726",
"f  c #40212E",
"g  c #41212E",
"h  c #41212F",
"j  c #40232F",
"k  c #432828",
"l  c #452A2A",
"z  c #472A2A",
"x  c #452C2C",
"c  c #472D2D",
"v  c #482928",
"b  c #4A2A29",
"n  c #4B2C2A",
"m  c #482D2D",
"M  c #4C2F2F",
"N  c #412330",
"B  c #432330",
"V  c #432331",
"C  c #422431",
"Z  c #452432",
"A  c #462433",
"S  c #472533",
"D  c #452634",
"F  c #442835",
"G  c #4B2837",
"H  c #4A2937",
"J  c #4C2837",
"K  c #4B2A38",
"L  c #4E2939",
"P  c #4F2A3A",
"I  c #4A2C39",
"U  c #4E2D3C",
"Y  c #4E2E3C",
"T  c #4F2F3E",
"R  c #582832",
"E  c #4C3131",
"W  c #4D313D",
"Q  c #50303E",
"!  c #53303F",
"~  c #513A3B",
"^  c #573D3F",
"/  c #442A45",
"(  c #553141",
")  c #543241",
"_  c #5C3747",
"`  c #563D48",
"'  c #5B3F4D",
"]  c #652A44",
"[  c #7B2042",
"{  c #613647",
"}  c #4C316A",
"|  c #5C3E63",
" . c #50356F",
".. c #523671",
"X. c #523672",
"o. c #533773",
"O. c #563A77",
"+. c #5A3D7B",
"@. c #5B3E7D",
"#. c #5C3F7E",
"$. c #7C4049",
"%. c #624652",
"&. c #654E51",
"*. c #664E51",
"=. c #6B4959",
"-. c #675053",
";. c #685254",
":. c #6E575B",
">. c #74505F",
",. c #75545E",
"<. c #765B61",
"1. c #755864",
"2. c #765F64",
"3. c #765D67",
"4. c #7C5D66",
"5. c #715B6F",
"6. c #7C5A69",
"7. c #7A5D69",
"8. c #61467B",
"9. c #644B7A",
"0. c #705577",
"q. c #745475",
"w. c #70537D",
"e. c #7A6468",
"r. c #7A6469",
"t. c #7B656A",
"y. c #7F656C",
"u. c #7F696D",
"i. c #92123D",
"p. c #9D113B",
"a. c #A0113F",
"s. c #AA153D",
"d. c #B9183A",
"f. c #BD1B3A",
"g. c #BD1A3B",
"h. c #842035",
"j. c #9A293D",
"k. c #C31D37",
"l. c #C01A3A",
"z. c #CA1F3B",
"x. c #CD1E39",
"c. c #811841",
"v. c #8A1847",
"b. c #971540",
"n. c #961A47",
"m. c #A61C41",
"M. c #842A42",
"N. c #823351",
"B. c #AE2244",
"V. c #964261",
"C. c #865D6E",
"Z. c #82636E",
"A. c #8A626E",
"S. c #8A6675",
"D. c #856678",
"F. c #8D6D7A",
"G. c #857175",
"H. c #887278",
"J. c #8A7579",
"K. c #89747A",
"L. c #8A757B",
"P. c #8D737D",
"I. c #8D797D",
"U. c #694D84",
"Y. c #6E5581",
"T. c #8F6C82",
"R. c #846E8E",
"E. c #8C7381",
"W. c #8F7881",
"Q. c #8F778C",
"!. c #977785",
"~. c #907C82",
"^. c #937D86",
"/. c #927F87",
"(. c #947F86",
"). c #866D96",
"_. c #948086",
"`. c #9B868D",
"'. c #9A868E",
"]. c #9D888F",
"[. c #9D898F",
"{. c #9E8A92",
"}. c #9F8A99",
"|. c #A59297",
" X c #A59199",
".X c #A6929A",
"XX c #A6939E",
"oX c #AB98A0",
"OX c #AE9BA2",
"+X c #AF9BA3",
"@X c #AD9AA8",
"#X c #B3A0A8",
"$X c #BAA8AF",
"%X c #BBA9B0",
"&X c #BBA9B1",
"*X c #BCAAB1",
"=X c #BFADB4",
"-X c #C0AEB4",
";X c #C0AFB5",
":X c None",
/* pixels */
":X:X:X:X:X:X:X:X:X:X:X:X:X:X:X:X:X:X:X:X:X:X:X:X:X:X:X:X:X:X:X:X",
":X:X:X:X:X:X:X:X:X:X:X:X:X:X:X:X:X:X:X:X:X:X:X:X:X:X:X:X:X:X:X:X",
":X:X:X:X:X:X:X:X:X:X:X:X:X:X:X:X:X:X:X:X:X:X:X:X:X:X:X:X:X:X:X:X",
":X:X:X:X:X:X:X:X:X:X:X:X:X:X:X:X:XZ S L :X:X:X:X:X:X:X:X:X:X:X:X",
":X:X:X:X:X:X:X:X:X:X:X:X:X:X:X:XZ A J P :X:X:X:X:X:X:X:X:X:X:X:X",
":X:X:X:X:X:X:X:X:X:X:X:X:X:XZ Z A J P :X:X:X:X:X:X:X:X:X:X:X:X:X",
":X:X:X:X:X:X:X:X:X:X:X:X:XZ Z A J P :X:X:X:X:X:X:X:X:X:X:X:X:X:X",
":X:X:X:X:X:X:X:X:X:X:X:XZ Z B D G :X:X:X:X:X:X:X:X:X:X:X:X:X:X:X",
":X:X:X:X:X:X:X:X:X:X:XZ Z h F $.R :X:X:X:X:X:X:X:X:X:X:X:X:X:X:X",
":X:X:X:X:X:X:X:X:X:Xf g 8 0 >.A.r :X:X:X:X:X:X:X:X:X:X:X:X:X:X:X",
":X:X:X:X:X:X:X:X:X:X:X< :Xk.m.c.p.d.g.l.:X:X:X:X:X:X:X:X:X:X:X:X",
":X:X:X:X:X:X:X:X:X:X:X:Xz.B.n.v.V.N.e [ b.:X:X:X:X:X:X:X:X:X:X:X",
":X:X:X:X:X:X:X:X:X:X:X:XM.C.!.,.~./.` U ] :X:X:X:X:X:X:X:X:X:X:X",
":X:X:X:X:X:X:X:X:X:X:X: Y 7.{.G.|.*X3.V ) { j.:X:X:X:X:X:X:X:X:X",
":X:X:X:X:X:X:X:X:X:X:XC ( 1.'.[.I.+X%.! _ T h.x.:X:X:X:X:X:X:X:X",
":X:X:X:X:X:X:X:X:X:X:Xj 9 W W.`.u.^.I H K 8 w a.f.:X:X:X:X:X:X:X",
":X:X:X:X:X:X:X:X:X:X:X- ; ' D.y.~ Z.=.N , q i.s.:X:X:X:X:X:X:X:X",
":X:X:X:X:X:X:X:X:X:X:X:X:XQ.w.4.<.S.6.Q > :X:X:X:X:X:X:X:X:X:X:X",
":X:X:X:X:X:X:X:X:X:X:X:X;X&XE.q.T.F.P.:X:X:X:X:X:X:X:X:X:X:X:X:X",
":X:X:X:X:X:X:X:X:X:X:X:X%X.XH./ | 0.}.:X:X:X:X:X:X:X:X:X:X:X:X:X",
":X:X:X:X:X:X:X:X:X:X:X%X Xt.^ k 5.Y.U.).:X:X:X:X:X:X:X:X:X:X:X:X",
":X:X:X:X:X:X:X:X:X:XOX(.-.M v y ;.XXR.8.+.:X:X:X:X:X:X:X:X:X:X:X",
":X:X:X:X:X:X:X:X:X:X*.E d d = d x (.$X@X9.X.+.:X:X:X:X:X:X:X:X:X",
":X:X:X:X:X:X:X:X:X:Xb n u 5 1 6 z 2.oX-X:X:X} o.@.:X:X:X:X:X:X:X",
":X:X:X:X:X:X:X:X:Xu v 7 4 5 1 * v M r.#X=X:X:X:X .O.#.:X:X:X:X:X",
":X:X:X:X:X:X:X:X:XX + X # 2 O & t i c _.*X:X:X:X:X:X ...:X:X:X:X",
":X:X:X:X:X:X:X:X:X:Xo O O . O % O @ $ &..X$X:X:X:X:X:X:X:X:X:X:X",
":X:X:X:X:X:X:X:X:X:Xa m p # X X X X   s :.].:X:X:X:X:X:X:X:X:X:X",
":X:X:X:X:X:X:X:X:X:XJ.L.l % X X X X O 3 e.K.:X:X:X:X:X:X:X:X:X:X",
":X:X:X:X:X:X:X:X:X:X:X:X:X:X:X:X:X:X:X:X:X:X:X:X:X:X:X:X:X:X:X:X",
":X:X:X:X:X:X:X:X:X:X:X:X:X:X:X:X:X:X:X:X:X:X:X:X:X:X:X:X:X:X:X:X",
":X:X:X:X:X:X:X:X:X:X:X:X:X:X:X:X:X:X:X:X:X:X:X:X:X:X:X:X:X:X:X:X"
};
