/* XPM */
static char *result[] = {
/* columns rows colors chars-per-pixel */
"32 32 2 1 ",
"  c #FDAE35",
". c #4D9262",
/* pixels */
"................................",
"...............  ...............",
"..............    ..............",
".............      .............",
"...........   .  .   ...........",
"..........  ...  ...  ..........",
".........  ....  ....  .........",
".........  ....  ....  .........",
".........   .      .   .........",
"..........    ....    ..........",
"............        ............",
"............      ..............",
"...............  ...............",
"...............  ...............",
"...............  ...............",
"...............  ...............",
"...............  ...............",
"...............  ...............",
"...............  ...............",
"...............  ...............",
"...............  ...............",
"...............  ...............",
"...............  .    ..........",
"...............  .   ...........",
"...............    .  ..........",
"...............  ... ...........",
"...............    .  ..........",
"...............  .   ...........",
"...............  .    ..........",
"...............  ...............",
"................................",
"................................"
};
