/* XPM */
static char *result[] = {
/* columns rows colors chars-per-pixel */
"32 32 154 2 ",
"   c #773637",
".  c #373A46",
"X  c #3F4B4F",
"o  c #364552",
"O  c #594147",
"+  c #414D51",
"@  c #414E53",
"#  c #424E53",
"$  c #424F54",
"%  c #435055",
"&  c #435155",
"*  c #445156",
"=  c #445257",
"-  c #455257",
";  c #465357",
":  c #495154",
">  c #445358",
",  c #455358",
"<  c #465358",
"1  c #475358",
"2  c #47565B",
"3  c #48555A",
"4  c #49575B",
"5  c #49575C",
"6  c #4A575C",
"7  c #4B585C",
"8  c #4A585D",
"9  c #4B585D",
"0  c #49585E",
"q  c #4B595E",
"w  c #4C595E",
"e  c #4C5A5F",
"r  c #515151",
"t  c gray33",
"y  c #595055",
"u  c #565758",
"i  c #50595F",
"p  c gray35",
"a  c #5D5B5B",
"s  c #5C5D5D",
"d  c #724243",
"f  c #7C4A4A",
"g  c #7C4B4D",
"h  c #794C4D",
"j  c #615D5D",
"k  c #605F5F",
"l  c #795555",
"z  c #735959",
"x  c #4C5A60",
"c  c #4D5B60",
"v  c #4F5C60",
"b  c #4D5D63",
"n  c #4E5D62",
"m  c #506065",
"M  c #506066",
"N  c #556166",
"B  c #546267",
"V  c #556469",
"C  c #56646A",
"Z  c #57676D",
"A  c #57676E",
"S  c #5C666A",
"D  c #57686E",
"F  c #5A6B71",
"G  c #5C6D73",
"H  c #5B6D74",
"J  c #5B6F76",
"K  c #5C6D74",
"L  c #5E6F76",
"P  c #5E7077",
"I  c gray38",
"U  c #646767",
"Y  c #6B6369",
"T  c #616B6F",
"R  c DimGray",
"E  c gray42",
"W  c #6C6D6D",
"Q  c #706468",
"!  c #706F6F",
"~  c #776D6D",
"^  c #616E74",
"/  c #677175",
"(  c #647076",
")  c #697072",
"_  c #62757C",
"`  c #6C757B",
"'  c #65787F",
"]  c gray45",
"[  c #727277",
"{  c #767575",
"}  c #787373",
"|  c #757778",
" . c #76797B",
".. c #7A7878",
"X. c gray48",
"o. c gray49",
"O. c #7F7E7E",
"+. c gray50",
"@. c #8B696A",
"#. c #867A7A",
"$. c #737E82",
"%. c #757F83",
"&. c #778185",
"*. c #7E8284",
"=. c #748289",
"-. c #7C868A",
";. c #7E888B",
":. c #848080",
">. c #848484",
",. c #868585",
"<. c #868686",
"1. c #898989",
"2. c #8B8B8B",
"3. c #8C8B8B",
"4. c gray55",
"5. c #8E8E8E",
"6. c #8F999C",
"7. c #929191",
"8. c #939393",
"9. c #949292",
"0. c #959494",
"q. c #959595",
"w. c gray60",
"e. c #9A9A9A",
"r. c #9B9A9A",
"t. c #97A1A5",
"y. c #99A3A6",
"u. c #9EA8AC",
"i. c #9FA9AD",
"p. c #A1ABAF",
"a. c gray67",
"s. c #AFAFAF",
"d. c #A2ACB0",
"f. c #A4AEB2",
"g. c #A5AFB3",
"h. c #B1B1B1",
"j. c #B3B0B0",
"k. c #B2B2B2",
"l. c gray71",
"z. c #B7B6B6",
"x. c #B9B9B9",
"c. c #BAB8B8",
"v. c #C1C0C0",
"b. c gray78",
"n. c gray79",
"m. c #CBCACA",
"M. c LightGray",
"N. c #D6D5D5",
"B. c #D8D7D7",
"V. c #DAD9D9",
"C. c #EDECEC",
"Z. c #F2F0F0",
"A. c #F3F1F1",
"S. c #4D9262",
/* pixels */
"S.S.S.S.S.S.S.S.S.S.S.S.S.S.S.S.S.S.S.S.S.S.S.S.S.S.S.S.S.S.S.S.",
"S.S.S.S.S.S.S.S.S.S.S.S.S.S.S.S.S.S.S.S.S.S.S.S.S.S.S.S.S.S.S.S.",
"S.S.S.S.S.S.S.S.S.S.S.S.S.S.S.S.S.S.S.S.S.S.S.S.S.S.S.S.S.S.S.S.",
"S.S.S.S.S.S.S.S.S.S.S.S.S.S.S.S.S.S.S.S.S.S.S.S.S.S.S.S.S.S.S.S.",
"S.S.S.S.S.S.S.S.S.S.S.S.S.S.S.S.S.S.S.S.S.S.S.S.S.S.S.S.S.S.S.S.",
"S.S.S.S.S.S.S.S.n.S.S.S.S.S.S.S.S.S.S.S.S.S.S.S.S.S.S.S.S.S.S.S.",
"S.S.S.S.S.S.S.S.S.n.b.S.S.S.S.S.S.S.S.S.S.S.S.S.S.S.S.S.S.S.S.S.",
"S.S.S.S.S.S.S.S.S.S.S.x.l.S.S.S.S.S.S.S.S.S.S.S.S.S.S.S.S.S.S.S.",
"S.S.S.S.S.S.S.S.S.S.S.S.s.a.z.7.8.r.S.S.S.S.S.S.S.S.S.S.S.S.S.S.",
"S.S.S.S.S.S.S.S.S.S.S.S.S.m.q.{ +.5.0.S.S.S.S.S.S.S.S.S.S.S.S.S.",
"S.S.S.S.S.S.S.S.S.S.S.S.S.v.1.,...! O.h.S.S.S.S.S.S.S.S.S.S.S.S.",
"S.S.S.S.S.S.S.S.S.S.S.S.A.c.~ } <.:.9.*.7 S.S.S.S.S.S.S.S.S.S.S.",
"S.S.S.S.S.S.S.S.S.S.S.Z.M.j.@.f z l #.) ; u s S.S.S.S.S.S.S.S.S.",
"S.S.S.S.S.S.S.S.S.C.V.N.k.w. .Q g h j W U t : 5 S.S.S.S.S.S.S.S.",
"S.S.S.S.S.S.S.S.S.B.x.e.3.| 0 J ^ ( S.k I r S.S.S.S.S.S.S.S.S.S.",
"S.S.S.S.S.S.S.S.S.S.2.R S.S.o y i b S.a p S.S.S.S.S.S.S.S.S.S.S.",
"S.S.S.S.S.S.S.S.S.4.>.S.S.S..   O S.S.S.S.S.S.S.S.S.S.S.S.S.S.S.",
"S.S.S.S.S.S.S.4.X.] E S.S.=.Y d [ p.g.S.S.S.S.S.S.S.S.S.S.S.S.S.",
"S.S.S.S.S.S.1.o.S.S.S.S.f.u.-.` N T ;.d.S.S.S.S.S.S.S.S.S.S.S.S.",
"S.S.S.S.S.S.S.S.S.S.S.f.i.&.C H m & 1 / 6.S.S.S.S.S.S.S.S.S.S.S.",
"S.S.S.S.S.S.S.S.S.S.f.i.&.V Z , * 5 8 % S t.S.S.S.S.S.S.S.S.S.S.",
"S.S.S.S.S.S.S.S.S.g.i.&.C F S.S.S.@ - 8 w $.S.S.S.S.S.S.S.S.S.S.",
"S.S.S.S.S.S.S.S.S.y.%.B F S.S.S.S.S.@ $ + * c S.S.S.S.S.S.S.S.S.",
"S.S.S.S.S.S.S.S.S.v 9 3 S.S.S.S.S.S.S.S.S.X + S.S.S.S.S.S.S.S.S.",
"S.S.S.S.S.S.S.S._ M x S.S.S.S.S.S.S.S.S.S.S.# 4 S.S.S.S.S.S.S.S.",
"S.S.S.S.S.S.S.' P A S.S.S.S.S.S.S.S.S.S.S.S.@ - q S.S.S.S.S.S.S.",
"S.S.S.S.S.S.S.G D S.S.S.S.S.S.S.S.S.S.S.S.S.S.S.< S.S.S.S.S.S.S.",
"S.S.S.S.S.S.n 6 S.S.S.S.S.S.S.S.S.S.S.S.S.S.S.S.S.+ S.S.S.S.S.S.",
"S.S.S.S.S.' K S.S.S.S.S.S.S.S.S.S.S.S.S.S.S.S.S.S.= 8 S.S.S.S.S.",
"S.S.S.S.S.L S.S.S.S.S.S.S.S.S.S.S.S.S.S.S.S.S.S.S.> 2 e S.S.S.S.",
"S.S.S.S.S.S.S.S.S.S.S.S.S.S.S.S.S.S.S.S.S.S.S.S.S.S.S.S.S.S.S.S.",
"S.S.S.S.S.S.S.S.S.S.S.S.S.S.S.S.S.S.S.S.S.S.S.S.S.S.S.S.S.S.S.S."
};
