/* XPM */
static char *result[] = {
/* columns rows colors chars-per-pixel */
"32 32 186 2 ",
"   c #331918",
".  c #331A19",
"X  c #341A19",
"o  c #341B1A",
"O  c #351C1B",
"+  c #361C1B",
"@  c #371D1B",
"#  c #381E1D",
"$  c #391E1D",
"%  c #391F1E",
"&  c #3B201F",
"*  c #361B27",
"=  c #371C27",
"-  c #3C1E2B",
";  c #3E1E2B",
":  c #3D2120",
">  c #3C2121",
",  c #3D2221",
"<  c #3E2221",
"1  c #3D202D",
"2  c #3F202D",
"3  c #3C222C",
"4  c #3F202E",
"5  c #3F222F",
"6  c #411D2A",
"7  c #431C2A",
"8  c #451C2E",
"9  c #6C1D38",
"0  c #741C3D",
"q  c #402322",
"w  c #402423",
"e  c #412423",
"r  c #422524",
"t  c #432625",
"y  c #402626",
"u  c #412726",
"i  c #442625",
"p  c #442726",
"a  c #452726",
"s  c #40212E",
"d  c #41212E",
"f  c #41212F",
"g  c #432828",
"h  c #442A2A",
"j  c #452A2A",
"k  c #482928",
"l  c #4A2A29",
"z  c #4B2C2B",
"x  c #482D2D",
"c  c #4C2F2F",
"v  c #432330",
"b  c #452432",
"n  c #462433",
"m  c #472533",
"M  c #452634",
"N  c #462634",
"B  c #4B2134",
"V  c #442835",
"C  c #472835",
"Z  c #4A2837",
"A  c #4B2837",
"S  c #4C2837",
"D  c #4E2939",
"F  c #4F2A3A",
"G  c #4C2D3A",
"H  c #4E2D3B",
"J  c #4F2D3B",
"K  c #582832",
"L  c #4C3131",
"P  c #4D313D",
"I  c #573D3E",
"U  c #7B1743",
"Y  c #781C44",
"T  c #563242",
"R  c #563342",
"E  c #553543",
"W  c #583443",
"Q  c #593545",
"!  c #5C3445",
"~  c #5E3647",
"^  c #573C48",
"/  c #622F45",
"(  c #673E50",
")  c #7E3652",
"_  c #482E68",
"`  c #4C316A",
"'  c #50356F",
"]  c #533773",
"[  c #563A77",
"{  c #573A77",
"}  c #583D76",
"|  c #593C7A",
" . c #5A3D7B",
".. c #5C3F7E",
"X. c #5B4244",
"o. c #5C4244",
"O. c #574049",
"+. c #60484B",
"@. c #7C4049",
"#. c #614451",
"$. c #634652",
"%. c #644D51",
"&. c #664E51",
"*. c #67495D",
"=. c #6F4C5C",
"-. c #675053",
";. c #675054",
":. c #6E575B",
">. c #75505F",
",. c #5D4374",
"<. c #5F437F",
"1. c #61486B",
"2. c #7F4B62",
"3. c #795666",
"4. c #715D60",
"5. c #7A5D69",
"6. c #785F69",
"7. c #7E5D6E",
"8. c #62487D",
"9. c #6B4F79",
"0. c #745270",
"q. c #755677",
"w. c #7A6468",
"e. c #7B656A",
"r. c #7E696D",
"t. c #AA1C36",
"y. c #A2113D",
"u. c #A2183C",
"i. c #B41737",
"p. c #8F1443",
"a. c #8B1846",
"s. c #8E1C4B",
"d. c #971740",
"f. c #A51C40",
"g. c #A32347",
"h. c #924666",
"j. c #9B4562",
"k. c #83636F",
"l. c #83676F",
"z. c #8A626E",
"x. c #846879",
"c. c #8F6C7C",
"v. c #906B79",
"b. c #946F7E",
"n. c #867175",
"m. c #89707A",
"M. c #8B707B",
"N. c #88737B",
"B. c #8A7579",
"V. c #89747A",
"C. c #8A757B",
"Z. c #8D797D",
"A. c #7D6282",
"S. c #7D6287",
"D. c #836D8E",
"F. c #926C88",
"G. c #8F7A80",
"H. c #8F7A81",
"J. c #947281",
"K. c #937E87",
"L. c #947F86",
"P. c #977E88",
"I. c #937E97",
"U. c #97828A",
"Y. c #9A848B",
"T. c #9B858D",
"R. c #99878E",
"E. c #9B878E",
"W. c #9C888E",
"Q. c #9D888F",
"!. c #9D898F",
"~. c #9E8991",
"^. c #A59297",
"/. c #A59199",
"(. c #A6929A",
"). c #A894A7",
"_. c #AE9BA2",
"`. c #AE9BA3",
"'. c #AE9BA8",
"]. c #B19EA6",
"[. c #BAA8AF",
"{. c #BBA9B0",
"}. c #BCAAB1",
"|. c #BFADB4",
" X c #C0AEB5",
".X c #4D9262",
/* pixels */
".X.X.X.X.X.X.X.X.X.X.X.X.X.X.X.X.X.X.X.X.X.X.X.X.X.X.X.X.X.X.X.X",
".X.X.X.X.X.X.X.X.X.X.X.X.X.X.X.X.X.X.X.X.X.X.X.X.X.X.X.X.X.X.X.X",
".X.X.X.X.X.X.X.X.X.X.X.X.X.X.X.X.X.X.X.X.X.X.X.X.X.X.X.X.X.X.X.X",
".X.X.X.X.X.X.X.X.X.X.X.X.X.X.X.X.X.X.X.X.X.X.X.X.X.X.X.X.X.X.X.X",
".X.X.X.X.X.X.X.X.X.X.X.X.XD m b .X.X.X.X.X.X.X.X.X.X.X.X.X.X.X.X",
".X.X.X.X.X.X.X.X.X.X.X.X.XF S n b .X.X.X.X.X.X.X.X.X.X.X.X.X.X.X",
".X.X.X.X.X.X.X.X.X.X.X.X.X.XF S n b b .X.X.X.X.X.X.X.X.X.X.X.X.X",
".X.X.X.X.X.X.X.X.X.X.X.X.X.X.XF S n b b .X.X.X.X.X.X.X.X.X.X.X.X",
".X.X.X.X.X.X.X.X.X.X.X.X.X.X.X.XA M v b b .X.X.X.X.X.X.X.X.X.X.X",
".X.X.X.X.X.X.X.X.X.X.X.X.X.X.X.XK @.V f b b .X.X.X.X.X.X.X.X.X.X",
".X.X.X.X.X.X.X.X.X.X.X.X.X.X.X.X9 z.>.7 1 s d .X.X.X.X.X.X.X.X.X",
".X.X.X.X.X.X.X.X.X.X.X.X.Xd.u.f.a.U p.i..X; .X.X.X.X.X.X.X.X.X.X",
".X.X.X.X.X.X.X.X.X.X.X.XY / B =.v.) h.j.g..X.X.X.X.X.X.X.X.X.X.X",
".X.X.X.X.X.X.X.X.X.X.X~ ! H ^ K.H.4.R.m.( 8 .X.X.X.X.X.X.X.X.X.X",
".X.X.X.X.X.X.X.X.X.X.XQ R Z 6.}.^.n.~.5.T 5 .X.X.X.X.X.X.X.X.X.X",
".X.X.X.X.X.X.X.X.X.X- N W T $.`.Z.!.U.#.J C .X.X.X.X.X.X.X.X.X.X",
".X.X.X.X.X.X.X.X.X.X.X- 4 2 E P.r.T.M.P * = .X.X.X.X.X.X.X.X.X.X",
".X.X.X.X.X.X.X.X.X.X.X.X6 G 3.J.+.l.q.*.3 .X.X.X.X.X.X.X.X.X.X.X",
".X.X.X.X.X.X.X.X.X.X.X.Xt.0 2.c.k.7.A.)..X.X.X.X.X.X.X.X.X.X.X.X",
".X.X.X.X.X.X.X.X.X.X.X.Xy.s.b.x.0.9.Y.}.|..X.X.X.X.X.X.X.X.X.X.X",
".X.X.X.X.X.X.X.X.X.X.X.X.XF.S.,.1.O.V.(.{..X.X.X.X.X.X.X.X.X.X.X",
".X.X.X.X.X.X.X.X.X.X.X.X.X<.8.I.N.g I e./.{..X.X.X.X.X.X.X.X.X.X",
".X.X.X.X.X.X.X.X.X.X.X| } D.'.].;.e k c -.L._..X.X.X.X.X.X.X.X.X",
".X.X.X.X.X.X.X.X.X .] _ .X|.{.G.h a & a a L &..X.X.X.X.X.X.X.X.X",
".X.X.X.X.X.X.X..[ ` .X.X X}.W.o.p : % , r z l .X.X.X.X.X.X.X.X.X",
".X.X.X.X.X| { ' .X.X.X.X{.E.X.r i & . O # < w q .X.X.X.X.X.X.X.X",
".X.X.X.X.X.X.X.X.X.X.X[.(.%.@ O o $ o . o X . .X.X.X.X.X.X.X.X.X",
".X.X.X.X.X.X.X.X.X.X.XQ.:.u   . . . . + t x y .X.X.X.X.X.X.X.X.X",
".X.X.X.X.X.X.X.X.X.X.XV.w.> o . . . . $ j C.B..X.X.X.X.X.X.X.X.X",
".X.X.X.X.X.X.X.X.X.X.X.X.X.X.X.X.X.X.X.X.X.X.X.X.X.X.X.X.X.X.X.X",
".X.X.X.X.X.X.X.X.X.X.X.X.X.X.X.X.X.X.X.X.X.X.X.X.X.X.X.X.X.X.X.X",
".X.X.X.X.X.X.X.X.X.X.X.X.X.X.X.X.X.X.X.X.X.X.X.X.X.X.X.X.X.X.X.X"
};
