/* XPM */
static char *result[] = {
/* columns rows colors chars-per-pixel */
"32 32 5 1 ",
"  c #677598",
". c #8F9AB0",
"X c #414B66",
"o c #242A3D",
"O c white",
/* pixels */
" .. X..X   XX  .... X..X     XX ",
".  .oXX..   X .    .oXX...... X ",
"    ooo    ooX      ooo      ooX",
"  XX o   XXXo    XXX o     XXXo ",
"XXXXXo  XXXXo XXXXXXXo   XXXXXo ",
" XXXXoXX XXXoX XXXXXXoXXXX XXXoX",
"XXXXoooXXXXoooXXXXXXoooXXXXXXooo",
"o   Xooooooooooo    Xooooooooooo",
"  XX oX     ooo   XX oX       oo",
"XX XXX       o XXX XXX         o",
"XXXXX   XXXX oXXXXXXX   XXXXXX o",
"XXXXo XXXXXXXoXXXXXXo XXXXXXXXXo",
"ooooooXXXXXXooooooooooXXXXXXXXoo",
" ooX    Xoo      ooX    Xoo     ",
"  o   XX o   XXX  o   XX o   XXX",
"XXo XXXXXo XXXX XXo XXXXXo XXXX ",
"XXooXXXXooXXXXXXXXooXXXXooXXXXXX",
"XooooooooooXXXXXXooooooooooXXXXX",
"    ooo    ooX      ooo      ooX",
"  XX o   XXXo    XXX o     XXXo ",
"XXXXXo  XXXXo XXXXXXXo   XXXXXo ",
" XXXXoXX XXXoX XXXXXXoXXXX XXXoX",
"XXXXoooXXXXoooXXXXXXoooXXXXXXooo",
"o   Xooooooooooo    Xooooooooooo",
"  XX oX     ooo   XX oX       oo",
"XX XXX       o XXXXXXX         o",
"XXXXX   XXXX oXXXXXXX   XXXXXX o",
"XXXXo XXXXXXXoXXXXXXo XXXXXXXXXo",
"ooooooXXXXXXooooooooooXXXXXXXXoo",
" ooX    Xoo      ooX    Xoo     ",
"  o   XX o   XXX  o   XX o   XXX",
"XXo XXXXXo XXXX XXo XXXXXo XXXX "
};
